<?xml version="1.0" encoding="utf-8"?>
<!-- Generator: Adobe Illustrator 16.0.0, SVG Export Plug-In . SVG Version: 6.00 Build 0)  -->
<!DOCTYPE svg PUBLIC "-//W3C//DTD SVG 1.1//EN" "http://www.w3.org/Graphics/SVG/1.1/DTD/svg11.dtd">
<svg version="1.1" id="Layer_2" xmlns="http://www.w3.org/2000/svg" xmlns:xlink="http://www.w3.org/1999/xlink" x="0px" y="0px"
	 width="841.89px" height="1190.55px" viewBox="0 0 841.89 1190.55" style="enable-background:new 0 0 841.89 1190.55;"
	 xml:space="preserve">
<style type="text/css">
<![CDATA[
	.st0{fill:none;stroke:#000000;stroke-width:3;stroke-miterlimit:10;}
]]>
</style>
<g>
	<path class="st0" d="M397.75,70.843h22.5v132.5c0,0-0.5,47-49.5,49c0,0-14.75,1.25-28.75-4.5l3-18.25c0,0,51.5,19.25,52-33.75
		S397.75,70.843,397.75,70.843z"/>
	<path class="st0" d="M420.25,252.458h23.25v-76.115c0,0,84.25,14.25,86.5-55s-89-53.25-109.75-50.25V252.458z"/>
	<path class="st0" d="M443,87.843c0,0,65.25-14,64.25,33.75c0,0-0.25,46.955-64.25,35.853V87.843z"/>
</g>
</svg>
